<?xml version="1.0" standalone="no"?>
<!DOCTYPE svg PUBLIC "-//W3C//DTD SVG 20010904//EN"
 "http://www.w3.org/TR/2001/REC-SVG-20010904/DTD/svg10.dtd">
<svg version="1.0" xmlns="http://www.w3.org/2000/svg"
 width="2358.000000pt" height="2358.000000pt" viewBox="0 0 2358.000000 2358.000000"
 preserveAspectRatio="xMidYMid meet">
<metadata>
Created by potrace 1.14, written by Peter Selinger 2001-2017
</metadata>
<g transform="translate(0.000000,2358.000000) scale(0.100000,-0.100000)"
fill="#000000" stroke="none">
<path d="M3 11795 c0 -4749 2 -5215 16 -5216 21 -1 23532 -1 23549 0 9 1 12
1051 12 5216 l0 5215 -11788 0 -11789 0 0 -5215z m3834 3662 c4 -5 3 -7 -2 -6
-30 9 -374 -71 -545 -126 -208 -67 -509 -200 -600 -265 -15 -11 -31 -20 -34
-20 -10 0 -180 -122 -251 -180 -107 -88 -247 -237 -327 -350 -40 -57 -138
-216 -138 -225 0 -2 -15 -36 -34 -77 -81 -174 -138 -391 -163 -623 -10 -91
-10 -383 0 -460 12 -91 51 -248 90 -360 120 -348 322 -626 614 -841 40 -30 76
-54 79 -54 3 0 19 -9 34 -20 24 -17 306 -163 320 -165 3 -1 23 -9 45 -19 81
-36 143 -60 285 -108 80 -27 152 -51 160 -54 8 -2 31 -8 50 -13 59 -17 274
-73 290 -76 8 -2 33 -8 55 -13 47 -13 424 -88 475 -95 19 -3 98 -15 175 -27
152 -24 152 -24 270 -35 44 -4 88 -9 98 -11 10 -2 46 -6 80 -9 34 -3 69 -8 77
-10 8 -2 35 -7 60 -10 101 -14 247 -50 347 -86 234 -85 404 -225 501 -414 34
-66 60 -149 57 -181 l-1 -21 755 -1 c416 0 762 -1 768 -1 7 -1 -8 -20 -34 -43
-26 -24 -54 -50 -63 -58 -45 -41 -230 -210 -274 -250 -28 -25 -60 -54 -72 -65
-11 -11 -58 -54 -104 -95 -45 -41 -106 -96 -134 -122 -28 -26 -53 -48 -56 -48
-4 0 -30 21 -60 48 -103 91 -256 225 -329 291 -40 36 -77 68 -81 71 -4 3 -41
34 -81 70 -134 119 -174 154 -194 172 -20 17 -20 16 -19 -102 2 -224 -76 -456
-214 -632 -148 -188 -399 -322 -707 -377 -33 -6 -71 -13 -85 -16 -14 -3 -56
-7 -95 -10 -38 -3 -99 -7 -135 -10 -139 -11 -432 -6 -530 10 -14 2 -45 6 -70
10 -375 53 -733 203 -990 415 -93 76 -209 197 -262 273 -12 17 -25 34 -28 37
-3 3 -32 46 -65 95 -59 91 -135 207 -141 214 -3 3 -83 -37 -359 -179 -71 -37
-238 -122 -370 -190 -132 -68 -264 -136 -293 -151 -29 -16 -59 -29 -65 -29 -9
0 -12 638 -10 2777 1 1528 2 2796 3 2818 l0 40 1159 0 c638 0 1163 -4 1168 -8z
m2064 3 c1 -3 2 -708 3 -1567 1 -1425 0 -1563 -15 -1563 -9 0 -42 9 -75 21
-32 11 -66 22 -74 24 -8 2 -55 15 -105 28 -76 21 -176 45 -260 63 -32 7 -187
34 -225 40 -19 3 -46 7 -60 9 -14 3 -47 7 -75 11 -27 3 -61 7 -74 9 -14 3 -54
7 -90 10 -36 3 -79 8 -96 10 -16 2 -70 6 -120 10 -96 6 -194 14 -235 20 -14 2
-45 6 -70 10 -25 4 -58 9 -75 11 -25 4 -106 19 -150 29 -5 1 -28 5 -50 10 -22
4 -71 16 -110 27 -38 10 -77 21 -85 23 -168 41 -396 152 -522 252 -153 123
-219 262 -212 450 10 330 172 566 486 711 55 25 213 79 213 72 0 -1 12 3 28 9
31 12 62 19 126 27 25 3 48 7 51 9 3 2 33 6 65 10 33 4 71 9 85 12 14 3 185 7
380 8 195 2 358 4 363 4 4 1 7 270 7 599 0 329 2 601 4 603 6 6 966 5 967 -1z
m2635 -673 c1 -372 4 -680 7 -684 4 -3 278 -7 609 -7 l603 -1 0 -2906 0 -2907
60 23 c489 187 896 597 1115 1125 17 41 37 89 45 105 30 68 109 316 121 381 3
15 7 31 10 35 4 8 59 281 68 344 4 22 8 54 11 70 8 53 14 98 20 170 4 39 9 86
12 105 3 19 7 1104 9 2410 1 1306 3 2384 3 2395 1 20 7 20 448 20 l448 0 0
-2482 c0 -1640 3 -2485 10 -2491 122 -106 268 -234 295 -259 19 -17 46 -41 60
-53 14 -11 52 -45 85 -74 278 -248 337 -295 349 -283 17 16 197 181 260 238
28 24 57 51 66 59 52 48 208 191 226 207 12 10 60 54 107 97 l87 80 2 2480 3
2481 473 0 c259 0 473 -2 473 -5 1 -3 2 -1659 3 -3681 l1 -3676 -3045 1 -3045
1 0 682 c0 375 -3 684 -6 688 -4 3 -19 8 -35 11 -190 31 -400 112 -564 218
-94 61 -245 212 -303 302 -69 109 -133 264 -151 369 -3 17 -10 53 -15 80 -10
49 -16 4996 -7 5006 3 2 247 4 543 4 l538 0 1 -678z m13495 628 c0 -83 0
-4569 -1 -4580 0 -5 -68 143 -151 330 -82 187 -159 359 -170 382 -10 24 -19
45 -19 48 0 2 -15 37 -34 77 -18 40 -57 127 -86 193 -29 66 -60 138 -70 160
-10 22 -51 114 -90 205 -40 91 -81 183 -90 205 -18 39 -44 98 -220 500 -48
110 -99 225 -113 255 -13 30 -48 109 -77 175 -29 66 -63 144 -76 173 -13 29
-24 54 -24 56 0 2 -14 34 -32 72 -17 38 -32 71 -33 74 0 3 -12 30 -27 62 -14
31 -29 67 -33 80 -4 12 -11 28 -15 33 -5 6 -17 33 -28 60 -11 28 -38 90 -61
138 -23 49 -41 91 -41 94 0 3 -16 39 -35 80 -19 41 -35 76 -35 79 0 2 -11 27
-24 56 -13 29 -40 91 -61 138 -21 47 -46 105 -58 130 -11 25 -21 50 -23 55 -1
6 -18 44 -37 85 -19 41 -49 109 -67 150 -18 41 -48 108 -66 148 -19 41 -34 75
-34 78 0 2 -22 53 -49 112 -26 59 -51 117 -55 128 -6 19 7 19 1014 19 l1020 0
1 -50z m-4296 -1367 c3 -3 -66 -164 -128 -301 -15 -32 -27 -59 -27 -62 0 -2
-13 -32 -29 -67 -16 -35 -58 -130 -94 -213 -36 -82 -110 -251 -165 -375 -54
-124 -190 -432 -302 -685 -111 -253 -211 -478 -221 -500 -10 -22 -70 -159
-134 -305 -64 -146 -128 -289 -141 -318 -13 -29 -24 -55 -24 -57 0 -2 -14 -35
-31 -72 -17 -38 -37 -81 -44 -98 -7 -16 -25 -56 -39 -87 -14 -31 -26 -59 -26
-62 0 -2 -13 -33 -29 -68 -16 -35 -64 -142 -106 -238 -42 -96 -79 -180 -83
-186 -5 -10 -9 3649 -3 3691 1 9 1617 12 1626 3z m1580 -628 c56 -129 176
-401 265 -605 176 -401 190 -434 226 -513 13 -29 24 -55 24 -57 0 -2 13 -32
29 -67 37 -80 40 -88 216 -488 81 -184 155 -353 165 -375 18 -41 190 -432 285
-650 29 -66 134 -307 234 -535 101 -228 246 -559 323 -735 77 -176 153 -348
169 -383 16 -35 29 -65 29 -67 0 -3 11 -28 24 -57 49 -109 70 -157 136 -308
64 -146 79 -181 131 -297 31 -69 60 -135 69 -159 l8 -21 -2479 0 c-1363 0
-2479 1 -2479 2 0 2 77 181 100 229 10 23 51 115 90 206 39 91 80 183 90 205
10 22 52 118 94 213 42 94 110 250 152 345 42 94 100 226 129 292 29 66 67
150 84 188 17 37 31 69 31 72 0 2 15 36 34 77 18 40 62 138 96 218 35 80 76
173 91 208 16 34 29 64 29 66 0 2 15 37 34 78 19 40 57 127 86 193 29 66 68
153 86 193 19 41 34 76 34 78 0 5 17 42 76 172 19 41 34 75 34 77 0 2 13 32
29 67 16 35 61 137 101 228 92 211 206 471 235 535 12 28 37 84 55 125 18 41
41 94 51 117 18 40 90 202 304 688 53 121 105 238 115 260 10 22 52 119 95
215 42 96 88 201 103 233 l26 59 19 -44 c10 -23 65 -149 122 -278z m-17680
-4041 c47 -77 144 -219 165 -239 3 -3 29 -34 59 -70 75 -91 242 -253 336 -328
44 -35 88 -70 98 -78 9 -8 20 -14 23 -14 3 0 20 -11 36 -25 66 -56 361 -218
493 -272 17 -7 52 -21 79 -33 124 -52 448 -148 592 -174 16 -2 38 -7 49 -9 11
-3 40 -8 65 -12 76 -13 94 -16 97 -19 2 -2 -496 -3 -1107 -3 -610 0 -1110 3
-1110 6 -1 10 -1 1424 0 1466 0 40 0 40 43 -46 24 -47 61 -114 82 -150z m5270
-704 c228 -197 489 -345 794 -449 93 -33 388 -110 451 -118 14 -2 -633 -4
-1437 -4 -805 0 -1463 2 -1463 6 0 3 8 6 18 7 14 1 190 37 284 58 239 53 580
186 793 310 53 30 215 137 243 160 46 37 159 131 171 143 12 12 19 9 45 -20
17 -18 63 -60 101 -93z"/>
</g>
</svg>
